<svg xmlns="http://www.w3.org/2000/svg" width="72.777" height="72.834" viewBox="0 0 72.777 72.834" class="fill-current">
  <g id="Groupe_329" data-name="Groupe 329" transform="translate(-1786.739 -744.709)">
    <g id="Groupe_326" data-name="Groupe 326">
      <path id="Tracé_433" data-name="Tracé 433" d="M1808.1,797.7a.367.367,0,0,1-.213-.068.375.375,0,0,1-.094-.522c4.6-6.592,5.92-16.047,5.933-16.142a.375.375,0,0,1,.743.1c-.013.1-1.359,9.732-6.061,16.471A.372.372,0,0,1,1808.1,797.7Z"/>
      <g id="Groupe_325" data-name="Groupe 325">
        <g id="Groupe_324" data-name="Groupe 324">
          <path id="Tracé_434" data-name="Tracé 434" d="M1825.518,787.822a2.374,2.374,0,0,1-.575-.071c-8.329-2.076-10.61-10-11.19-15.252a4.084,4.084,0,0,1-3.378-2.057c-1.1-2.072-.154-4.911.95-6.164a1.6,1.6,0,0,1,1.731-.685c.869.328,1.31,1.713,1.31,4.115a26.252,26.252,0,0,0,.069,4.092,10.207,10.207,0,0,0,1.678-.084c9.051-1.15,15.3-7.126,16.707-15.986a.375.375,0,1,1,.74.118c-1.465,9.208-7.952,15.418-17.353,16.612a11.131,11.131,0,0,1-1.7.094c.58,5.058,2.788,12.518,10.613,14.47a1.569,1.569,0,0,0,1.8-.834,8.934,8.934,0,0,0,.824-2.779c-3.935.5-5.019-3.493-5.029-3.535a.375.375,0,0,1,.2-.432c2.066-.982,3.115-.417,3.632.228a.845.845,0,0,0,.9.29c1.414-.37,2.09.91,2.634,1.937a.375.375,0,1,1-.663.351c-.731-1.382-1.134-1.734-1.781-1.563a1.6,1.6,0,0,1-1.675-.546c-.561-.7-1.577-.506-2.425-.153a3.787,3.787,0,0,0,4.555,2.6.375.375,0,0,1,.451.4,9.875,9.875,0,0,1-.951,3.531A2.309,2.309,0,0,1,1825.518,787.822Zm-12.847-23.548a1.228,1.228,0,0,0-.783.5c-.936,1.063-1.778,3.567-.851,5.316a3.343,3.343,0,0,0,2.641,1.64,26.578,26.578,0,0,1-.061-4.055c0-2.254-.428-3.23-.826-3.38A.337.337,0,0,0,1812.671,764.274Z"/>
        </g>
        <path id="Tracé_435" data-name="Tracé 435" d="M1829.072,777.989a2.785,2.785,0,0,1-1.05-.26.375.375,0,0,1,.291-.691c.583.245.844.221.959.158.228-.124.321-.643.419-1.193.056-.315.117-.653.21-.993.126-.459.247-.92.368-1.378.881-3.338,1.713-6.491,3.581-7.058a1.308,1.308,0,0,1,1.333.208c.845.758.5,2.726.462,2.948a.375.375,0,0,1-.737-.138c.106-.573.192-1.877-.226-2.251-.048-.044-.2-.176-.614-.049-1.468.445-2.285,3.539-3.074,6.532-.121.459-.243.923-.369,1.384-.087.317-.143.633-.2.927-.136.764-.254,1.425-.8,1.72A1.14,1.14,0,0,1,1829.072,777.989Z"/>
        <path id="Tracé_436" data-name="Tracé 436" d="M1835.371,810.161a.358.358,0,0,1-.1-.013.374.374,0,0,1-.266-.458c1.342-5.051,1.347-8.236.014-10.024-1.593-2.137-5.084-2.241-9.5-2.374-.874-.026-1.783-.053-2.717-.1a2.3,2.3,0,0,1-2.068-1.128c-1.3-2.351,1.632-7.622,1.758-7.845a.375.375,0,0,1,.654.367c-.8,1.42-2.669,5.466-1.756,7.115a1.587,1.587,0,0,0,1.447.742c.93.044,1.834.071,2.7.1,4.622.139,8.273.248,10.083,2.676,1.48,1.986,1.515,5.375.109,10.665A.377.377,0,0,1,1835.371,810.161Z"/>
      </g>
    </g>
    <g id="Groupe_328" data-name="Groupe 328">
      <g id="Groupe_327" data-name="Groupe 327">
        <path id="Tracé_437" data-name="Tracé 437" d="M1803.506,812l.736.459,1.8-2.874.572.356-1.8,2.875.735.459-.357.573-2.042-1.278Z"/>
        <path id="Tracé_438" data-name="Tracé 438" d="M1797.246,807.613l2.749-2.887.488.464-1.151,1.209,1.03.979,1.15-1.208.488.465-2.749,2.886-.488-.463,1.135-1.192-1.03-.979-1.134,1.19Z"/>
        <path id="Tracé_439" data-name="Tracé 439" d="M1794.241,802.871l.829-.573-.779-1.127.555-.383.778,1.127.787-.545-.949-1.374.553-.383,1.333,1.928-3.277,2.267-1.333-1.928.553-.384Z"/>
        <path id="Tracé_440" data-name="Tracé 440" d="M1790.429,786.285l.665-.112.359,2.128-3.968.669-.113-.665,3.3-.556Z"/>
        <path id="Tracé_441" data-name="Tracé 441" d="M1788.815,778.129l.15.007a1.983,1.983,0,1,1-.188,3.962l-.15-.007a1.983,1.983,0,0,1,.188-3.962Zm-.032.673a1.309,1.309,0,0,0-.124,2.615l.15.008a1.309,1.309,0,1,0,.123-2.616Z"/>
        <path id="Tracé_442" data-name="Tracé 442" d="M1788.545,770.405l2.371.663a1.986,1.986,0,0,1,.681.369,1.437,1.437,0,0,1-.7,2.492,2,2,0,0,1-.774-.038l-2.371-.663.181-.649,2.371.663a1.293,1.293,0,0,0,.5.019.764.764,0,0,0,.351-1.31,1.308,1.308,0,0,0-.428-.233l-2.371-.664Z"/>
        <path id="Tracé_443" data-name="Tracé 443" d="M1793.984,767.61l-3.579-1.751.295-.6,3.58,1.752Z"/>
        <path id="Tracé_444" data-name="Tracé 444" d="M1797.165,760.621l.008.009a1.336,1.336,0,0,1-.016,1.72,1.363,1.363,0,0,1-.846.546,1.253,1.253,0,0,1-.716-.071c.055-.214.114-.426.171-.638l.052.013a.066.066,0,0,0,.031.009h.008l.02.008a.2.2,0,0,0,.063.01.76.76,0,0,0,.739-1.135c-.089-.086-.316-.294-.795.122l-.382.326a1.064,1.064,0,0,1-1.44.169,1.242,1.242,0,0,1-.153-1.73,1.223,1.223,0,0,1,1.483-.489c-.045.221-.088.443-.13.664a.568.568,0,0,0-.185-.062.17.17,0,0,0-.06-.008.63.63,0,0,0-.562.3.573.573,0,0,0,.01.777c.087.064.246.18.594-.121l.381-.333A1.172,1.172,0,0,1,1797.165,760.621Z"/>
        <path id="Tracé_445" data-name="Tracé 445" d="M1799.046,755.234l.676.747,1.015-.919.452.5-1.014.918.642.709,1.237-1.122.453.5-1.737,1.574-2.676-2.954,1.737-1.573.452.5Z"/>
        <path id="Tracé_446" data-name="Tracé 446" d="M1816.4,748.509a1.981,1.981,0,0,1-3.845.122l-.04-.144a1.981,1.981,0,0,1,3.332-1.912l-.47.482a1.309,1.309,0,0,0-2.215,1.249l.041.142a1.308,1.308,0,0,0,2.544-.1Z"/>
        <path id="Tracé_447" data-name="Tracé 447" d="M1824.475,746.616l.007.15a1.983,1.983,0,0,1-3.964.15l-.006-.149a1.983,1.983,0,0,1,3.963-.151Zm-.672.026a1.31,1.31,0,0,0-2.618.1l.006.15a1.309,1.309,0,1,0,2.617-.1Z"/>
        <path id="Tracé_448" data-name="Tracé 448" d="M1832.8,745.752l-.8,3.994-.66-.134.454-2.267-.97.724h0l-.041.029-.054.041h0l-.294.214-.183-.309-.635-1.073-.442,2.21-.661-.132.786-3.935.515.867.821,1.388,1.356-1.013Z"/>
        <path id="Tracé_449" data-name="Tracé 449" d="M1838.272,750.394a1.793,1.793,0,0,1-.99-.174c-.078-.034-.152-.071-.222-.107l-.543,1.234-.617-.272,1.625-3.686.616.271-.005.011a3.278,3.278,0,0,1,.569.284,1.377,1.377,0,0,1,.663,1.251A1.324,1.324,0,0,1,1838.272,750.394Zm.425-1.248a.718.718,0,0,0-.361-.626,2.791,2.791,0,0,0-.471-.234l-.533,1.21a1.472,1.472,0,0,0,.837.232A.644.644,0,0,0,1838.7,749.146Z"/>
        <path id="Tracé_450" data-name="Tracé 450" d="M1844,754.551l-.9-.646-.742.594-.57-.406,3.222-2.582.64.457-1.4,3.885-.571-.409Zm.237-.659.457-1.268-1.052.843Z"/>
        <path id="Tracé_451" data-name="Tracé 451" d="M1852.257,758.13l-2.97,2.682-.321-.356.668-3.034-1.858,1.678-.451-.5,2.95-2.665.3.334-.677,3.081,1.906-1.721Z"/>
        <path id="Tracé_452" data-name="Tracé 452" d="M1856.8,764.906l-2.437-.058-1.669.947-.333-.585,1.67-.948,1.179-2.156.384.676-.849,1.44,1.671.009Z"/>
      </g>
    </g>
    <path id="Tracé_453" data-name="Tracé 453" d="M1823.761,817.543A35.778,35.778,0,0,1,1813.332,816a.375.375,0,1,1,.219-.717A35.039,35.039,0,0,0,1858,774.466a.375.375,0,1,1,.733-.157,35.789,35.789,0,0,1-34.972,43.234Z"/>
  </g>
</svg>
