<svg xmlns="http://www.w3.org/2000/svg" width="199.752" height="74.14" viewBox="0 0 199.752 74.14">
  <g id="Groupe_334" data-name="Groupe 334" transform="translate(-1847.031 -4503.266)">
    <g id="Groupe_331" data-name="Groupe 331">
      <g id="Groupe_330" data-name="Groupe 330">
        <path id="Tracé_454" data-name="Tracé 454" d="M1868.209,4547.176a3.259,3.259,0,0,1-.783-.1c-11.274-2.812-14.37-13.53-15.16-20.642a5.546,5.546,0,0,1-4.571-2.8c-1.492-2.814-.209-6.669,1.29-8.37a2.183,2.183,0,0,1,2.371-.934c1.187.448,1.789,2.33,1.789,5.593a35.886,35.886,0,0,0,.073,5.511,13.96,13.96,0,0,0,2.262-.115c12.236-1.553,20.679-9.632,22.586-21.61a.528.528,0,0,1,.611-.443.534.534,0,0,1,.443.611c-1.985,12.474-10.772,20.885-23.505,22.5a15.007,15.007,0,0,1-2.292.128,34.927,34.927,0,0,0,.928,5.038c2.1,7.915,6.616,12.791,13.434,14.491a2.1,2.1,0,0,0,2.4-1.115,12.064,12.064,0,0,0,1.108-3.718c-5.328.657-6.786-4.75-6.8-4.807a.534.534,0,0,1,.288-.616c2.811-1.336,4.242-.566,4.947.317a1.122,1.122,0,0,0,1.19.382c1.937-.506,2.854,1.237,3.593,2.636a.534.534,0,0,1-.944.5c-.982-1.857-1.515-2.329-2.379-2.1a2.2,2.2,0,0,1-2.294-.749c-.745-.932-2.094-.677-3.228-.209a5.1,5.1,0,0,0,6.124,3.482.533.533,0,0,1,.643.568,13.365,13.365,0,0,1-1.29,4.788A3.152,3.152,0,0,1,1868.209,4547.176Zm-17.385-31.866a1.64,1.64,0,0,0-1.038.668c-1.29,1.463-2.349,4.9-1.148,7.163a4.484,4.484,0,0,0,3.521,2.2,36.117,36.117,0,0,1-.08-5.458c0-3.931-.917-4.478-1.1-4.547A.428.428,0,0,0,1850.824,4515.31Z" fill="#fff"/>
      </g>
      <path id="Tracé_455" data-name="Tracé 455" d="M1873.02,4533.869a3.814,3.814,0,0,1-1.432-.353.535.535,0,0,1,.415-.985c.818.345,1.151.283,1.275.216.3-.161.421-.857.553-1.6.077-.426.16-.885.286-1.346.17-.622.335-1.248.5-1.868,1.245-4.719,2.321-8.8,4.863-9.566a1.8,1.8,0,0,1,1.83.287c1.153,1.035.689,3.712.633,4.013a.541.541,0,0,1-.623.427.535.535,0,0,1-.427-.623c.183-.981.212-2.567-.3-3.022-.062-.056-.253-.228-.807-.06-1.972.6-3.074,4.776-4.14,8.817-.164.622-.33,1.251-.5,1.876-.118.43-.193.857-.264,1.254-.178,1-.347,1.939-1.1,2.346A1.576,1.576,0,0,1,1873.02,4533.869Z" fill="#fff"/>
      <path id="Tracé_456" data-name="Tracé 456" d="M1881.545,4577.406a.556.556,0,0,1-.137-.018.534.534,0,0,1-.379-.653c1.814-6.826,1.822-11.129.024-13.541-2.148-2.882-6.867-3.024-12.84-3.2-1.184-.035-2.414-.072-3.679-.133a3.14,3.14,0,0,1-2.82-1.54c-1.768-3.195,2.21-10.339,2.38-10.643a.534.534,0,0,1,.93.524c-1.077,1.918-3.606,7.381-2.376,9.6a2.125,2.125,0,0,0,1.936.99c1.259.059,2.483.1,3.661.132,6.262.188,11.208.336,13.664,3.631,2.008,2.695,2.056,7.288.152,14.454A.534.534,0,0,1,1881.545,4577.406Z" fill="#fff"/>
    </g>
    <path id="Tracé_457" data-name="Tracé 457" d="M1899.668,4562.42a.533.533,0,0,1-.533-.534v-43.1a.534.534,0,1,1,1.067,0v43.1A.534.534,0,0,1,1899.668,4562.42Z" fill="#fff"/>
    <g id="Groupe_333" data-name="Groupe 333">
      <g id="Groupe_332" data-name="Groupe 332">
        <path id="Tracé_458" data-name="Tracé 458" d="M1924.539,4527.272h-1.8v7.036h-1.4v-7.036h-1.8v-1.4h5Z" fill="#fff"/>
        <path id="Tracé_459" data-name="Tracé 459" d="M1936.564,4525.96v8.279h-1.4v-3.466h-2.952v3.466h-1.4v-8.279h1.4v3.415h2.952v-3.415Z" fill="#fff"/>
        <path id="Tracé_460" data-name="Tracé 460" d="M1944.24,4527.435v2.091h2.841v1.4h-2.841v1.986h3.466v1.4h-4.864v-8.271h4.864v1.4Z" fill="#fff"/>
        <path id="Tracé_461" data-name="Tracé 461" d="M1972.093,4532.617v1.7h-5.433v-10.131h1.7v8.435Z" fill="#fff"/>
        <path id="Tracé_462" data-name="Tracé 462" d="M1990.47,4528.936v.377a5,5,0,0,1-9.991,0v-.377a5,5,0,0,1,9.991,0Zm-1.7,0a3.3,3.3,0,0,0-6.6,0v.377a3.3,3.3,0,1,0,6.6,0Z" fill="#fff"/>
        <path id="Tracé_463" data-name="Tracé 463" d="M2006.254,4524.152v6.205a4.968,4.968,0,0,1-.432,1.905,3.619,3.619,0,0,1-6.519,0,4.955,4.955,0,0,1-.433-1.905v-6.205h1.7v6.205a3.335,3.335,0,0,0,.3,1.237,1.927,1.927,0,0,0,3.417-.038,3.386,3.386,0,0,0,.278-1.2v-6.205Z" fill="#fff"/>
        <path id="Tracé_464" data-name="Tracé 464" d="M2014.932,4534.225v-10.047h1.7v10.047Z" fill="#fff"/>
        <path id="Tracé_465" data-name="Tracé 465" d="M2032.151,4531.757l-.006.028a3.364,3.364,0,0,1-3.52,2.523,3.448,3.448,0,0,1-2.368-.905,3.194,3.194,0,0,1-.922-1.562c.515-.207,1.037-.4,1.555-.6a1.282,1.282,0,0,0,.05.125.175.175,0,0,0,.028.077l.008.017c.006.017.011.035.016.052a.512.512,0,0,0,.072.142,1.7,1.7,0,0,0,1.561.953c1.262,0,1.752-.707,1.845-1.135.045-.311.128-1.082-1.431-1.436l-1.231-.293c-1.626-.346-2.484-1.272-2.484-2.676a3.122,3.122,0,0,1,3.289-2.88,3.08,3.08,0,0,1,3.2,2.286q-.775.355-1.544.722a1.453,1.453,0,0,0-.148-.468.478.478,0,0,0-.074-.133,1.58,1.58,0,0,0-1.435-.7c-.757,0-1.567.473-1.567,1.177,0,.269,0,.767,1.128,1.026l1.243.28C2031.421,4528.829,2032.417,4530.063,2032.151,4531.757Z" fill="#fff"/>
        <path id="Tracé_466" data-name="Tracé 466" d="M2042.575,4525.967v2.539h3.449v1.7h-3.449v2.409h4.208v1.7h-5.9V4524.27h5.9v1.7Z" fill="#fff"/>
        <path id="Tracé_467" data-name="Tracé 467" d="M1929.066,4554.044a4.994,4.994,0,0,1-9.415-2.323v-.377a4.994,4.994,0,0,1,9.391-2.37l-1.47.848a3.3,3.3,0,0,0-6.224,1.522v.377a3.3,3.3,0,0,0,6.249,1.475Z" fill="#fff"/>
        <path id="Tracé_468" data-name="Tracé 468" d="M1950.4,4551.344v.377a5,5,0,0,1-9.991,0v-.377a5,5,0,0,1,9.991,0Zm-1.7,0a3.3,3.3,0,1,0-6.6,0v.377a3.3,3.3,0,1,0,6.6,0Z" fill="#fff"/>
        <path id="Tracé_469" data-name="Tracé 469" d="M1970.714,4546.374v10.254h-1.7V4550.8l-2.037,2.269v0l-.085.092-.113.126,0,0-.621.673-.6-.671h0l-2.1-2.337v5.674h-1.7v-10.1l1.7,1.888,2.713,3.021,2.848-3.171Z" fill="#fff"/>
        <path id="Tracé_470" data-name="Tracé 470" d="M1987.142,4552.754a4.472,4.472,0,0,1-2.457.606c-.214,0-.419-.009-.617-.02v3.392h-1.7v-10.141h1.7v.027a8.22,8.22,0,0,1,1.6.08,3.47,3.47,0,0,1,2.8,2.209A3.33,3.33,0,0,1,1987.142,4552.754Zm-.285-3.3a1.811,1.811,0,0,0-1.467-1.079,6.889,6.889,0,0,0-1.322-.057v3.326a3.709,3.709,0,0,0,2.161-.316A1.619,1.619,0,0,0,1986.857,4549.451Z" fill="#fff"/>
        <path id="Tracé_471" data-name="Tracé 471" d="M2005.5,4554.414h-2.8l-.649,2.3h-1.763l2.82-10h1.979l2.821,10h-1.763Zm-.478-1.7-.92-3.263-.92,3.263Z" fill="#fff"/>
        <path id="Tracé_472" data-name="Tracé 472" d="M2027.016,4546.621v10.074h-1.2l-4.546-6.37v6.3h-1.7v-10.009h1.138l4.611,6.464v-6.464Z" fill="#fff"/>
        <path id="Tracé_473" data-name="Tracé 473" d="M2046.766,4546.574l-3.159,5.264v4.835h-1.7v-4.834l-3.253-5.265h1.957l2.1,3.649,2.1-3.649Z" fill="#fff"/>
      </g>
    </g>
  </g>
</svg>
