<svg
  width="1443"
  height="199"
  viewBox="0 0 1443 199"
  fill="none"
  xmlns="http://www.w3.org/2000/svg">
  <g opacity="0.12">
    <path
      opacity="0.12"
      d="M29.5931 91.536C28.3041 90.892 27.4989 90.5711 26.3709 90.0871C30.7189 83.1641 35.7111 76.887 36.3551 68.351C27.8201 66.578 8.17491 71.4099 0.767905 77.2069C0.514774 77.0145 0.312537 76.7631 0.17855 76.4748C0.0445618 76.1864 -0.0170531 75.8697 -0.000893792 75.5522C0.0152655 75.2346 0.108756 74.9258 0.271323 74.6525C0.43389 74.3792 0.660609 74.1498 0.931968 73.984C3.20895 72.4985 5.63674 71.2583 8.17489 70.2841C15.4204 67.8013 22.9332 66.1804 30.5579 65.455C32.9729 65.295 35.3871 64.9709 38.1251 64.6549C39.2541 61.7549 40.3789 59.1779 41.5079 56.6029C47.6708 40.7744 55.9003 25.8306 65.982 12.1601C68.076 9.26007 70.33 6.527 72.744 3.788C73.8968 2.49725 75.2581 1.40914 76.7711 0.569002C77.5711 0.0850022 79.0259 -0.230972 79.5069 0.245028C80.3375 1.18981 80.8451 2.37497 80.9559 3.62808C80.941 4.61333 80.779 5.59071 80.4749 6.52799C79.3459 12.806 76.7751 18.4419 73.8751 23.9159C67.7541 35.3499 60.5109 45.8159 53.1009 56.2809L48.9171 62.401C49.7221 64.495 51.1711 64.011 52.1361 63.851L75.9691 62.882C78.8691 62.722 81.763 62.882 85.95 62.882C84.18 64.011 83.3749 65.1369 82.5709 65.1369C76.4499 65.4599 70.1711 65.6209 64.0511 65.7809L50.6871 66.265C46.9871 66.265 44.4089 67.8751 41.9869 71.0971C37.3808 77.3085 34.0438 84.3666 32.1661 91.8681C27.9791 109.58 24.599 127.452 22.181 145.488C21.861 152.41 18.642 154.343 19.607 147.258C20.572 140.011 21.7001 132.765 22.9891 125.682C25.0871 114.397 27.3361 103.13 29.5931 91.536ZM78.5411 2.81607C71.6191 7.48507 67.2709 12.961 58.0909 28.256C49.3959 42.428 43.1179 56.4359 42.1519 63.6789C44.7269 64.6479 45.6919 62.554 46.8209 60.944C55.0319 49.671 63.2439 38.2439 70.0059 25.8439C71.8293 22.7636 73.4954 19.5929 74.9979 16.3439C76.7709 12.3169 78.3811 8.29007 78.5411 2.81607V2.81607Z"
      fill="#231F20"/>
    <path
      opacity="0.12"
      d="M110.587 135.497C104.466 135.013 98.9918 134.853 93.8398 133.243C89.1678 131.954 85.3048 129.86 82.5698 126.643L79.6699 123.424C79.105 122.922 78.4389 122.547 77.7166 122.325C76.9942 122.102 76.2324 122.038 75.4829 122.135C73.9671 122.323 72.462 122.591 70.9739 122.935C64.3849 124.681 58.0517 127.279 52.134 130.662C50.685 131.47 49.2339 132.435 47.7859 133.08C47.0803 133.408 46.3099 133.572 45.532 133.561C44.567 133.724 43.2778 132.919 43.2778 132.435C43.393 131.277 43.664 130.139 44.083 129.053C44.883 126.959 45.8559 124.868 46.6609 122.614C46.8191 122.288 46.9014 121.93 46.9014 121.567C46.9014 121.205 46.8191 120.846 46.6609 120.52C45.3719 119.231 46.0158 118.103 47.1418 116.977C47.6919 116.347 48.2842 115.754 48.9148 115.204C50.825 113.6 52.3172 111.555 53.2629 109.247C55.8369 104.094 58.4149 98.7811 61.1499 93.4681C64.3729 87.5111 67.75 81.3932 71.135 75.4332C73.3018 71.4998 75.8353 67.7798 78.7019 64.323C80.2779 62.511 82.061 60.8904 84.0149 59.4942C85.3157 58.8017 86.7369 58.3641 88.2019 58.2051C91.2609 58.0451 93.355 59.005 94.002 61.105C94.3227 62.5363 94.3227 64.021 94.002 65.4522C92.8351 69.3843 91.2134 73.1669 89.1699 76.7232C84.4102 83.9904 78.9647 90.7843 72.908 97.012C68.4 101.521 63.731 106.189 59.063 110.537C57.0418 112.306 55.4449 114.508 54.3909 116.978C52.7809 120.358 51.1719 123.578 49.7229 126.96C49.7229 127.123 49.7228 127.444 49.8828 127.444C50.3508 127.61 50.8377 127.718 51.332 127.765C52.781 127.123 54.391 126.318 56.001 125.674C59.544 124.225 63.247 122.774 66.95 121.647C70.653 120.52 74.357 119.717 78.384 120.358C80.8114 120.514 83.0999 121.544 84.8259 123.258C85.5687 124.023 86.2666 124.83 86.916 125.676C90.616 130.505 96.74 132.599 104.147 133.083C111.929 133.656 119.753 133.004 127.332 131.149C135.97 128.965 144.34 125.833 152.29 121.809L161.79 116.98C162.733 116.671 163.705 116.456 164.69 116.336C165.014 116.336 165.49 116.82 165.819 116.98C165.979 117.141 165.819 117.301 165.656 117.461C165.495 117.785 165.335 118.269 164.856 118.43C152.644 126.214 139.022 131.52 124.763 134.048C119.923 134.851 114.93 135.011 110.587 135.497ZM62.9238 100.878C63.6123 100.655 64.2634 100.33 64.855 99.9131C72.264 92.3431 79.347 84.4552 84.5 75.9202C86.151 73.2647 87.5527 70.462 88.687 67.5481C89.4891 65.8369 89.6595 63.8969 89.168 62.0721C89.0663 61.8645 88.9049 61.6922 88.7043 61.5772C88.5038 61.4622 88.2735 61.4099 88.043 61.427C87.8153 61.4027 87.5864 61.461 87.3979 61.5911C86.4329 62.2321 85.4649 62.876 84.6599 63.521C81.8631 66.5352 79.3813 69.8269 77.2529 73.345C72.4249 80.912 68.3979 88.8031 64.2129 96.5301C63.3274 97.8034 62.8754 99.3281 62.9238 100.878C62.4398 101.038 61.4749 101.199 62.4399 101.843L62.9238 100.878Z"
      fill="#231F20"/>
    <path
      opacity="0.12"
      d="M159.867 128.249C160.187 131.949 161.797 133.401 164.375 133.401C167.594 133.241 170.816 133.241 173.875 132.276C179.045 130.625 184.101 128.635 189.009 126.318C193.357 124.385 197.384 121.807 201.569 119.553C202.168 119.168 202.883 119.006 203.59 119.095C204.296 119.183 204.949 119.517 205.435 120.037C194.002 126.479 183.212 133.401 170.653 135.495C167.991 135.979 165.264 135.979 162.602 135.495C159.702 135.011 157.933 132.757 157.613 129.538C157.129 124.061 161.313 115.369 165.824 112.951C166.624 112.631 168.239 112.47 168.724 112.951C169.478 113.926 169.926 115.104 170.01 116.334C170.01 118.748 168.4 120.521 166.79 122.134C164.535 124.225 162.281 126.155 159.867 128.249ZM161.797 123.096C166.629 118.748 166.629 118.748 167.273 115.205C164.535 116.497 163.087 118.588 161.797 123.097V123.096Z"
      fill="#231F20"/>
    <path
      opacity="0.12"
      d="M239.576 128.897C240.221 125.678 240.545 122.619 241.349 119.557C244.75 106.366 250.357 93.8452 257.933 82.5241C260.174 79.288 262.649 76.2208 265.339 73.3471C266.824 72.0254 268.384 70.7899 270.011 69.6469C271.06 69 272.199 68.5117 273.391 68.1979C276.291 67.7129 278.222 68.679 279.027 70.288C280.11 72.3071 280.505 74.6242 280.153 76.8881C279.681 81.8519 278.085 86.6427 275.484 90.8969C271.83 96.616 267.68 102.003 263.084 106.997C258.095 112.149 252.943 117.297 247.79 122.455C245.696 124.388 244.728 126.321 244.728 128.575C244.728 130.99 244.728 133.404 245.857 135.658C247.627 139.041 250.365 140.49 255.197 140.651C259.087 140.89 262.991 140.564 266.788 139.685C275.726 137.644 284.458 134.787 292.874 131.15C298.348 128.896 303.5 126.482 308.813 124.064C311.713 122.939 314.45 121.329 317.833 120.845C318.076 120.885 318.3 120.998 318.477 121.169C318.638 121.169 318.638 121.489 318.477 121.489C318.051 122.004 317.494 122.395 316.864 122.618C310.264 125.677 303.664 128.736 297.059 131.634C290.077 134.762 282.863 137.345 275.483 139.362C270.076 140.953 264.519 141.978 258.9 142.421C256.058 142.693 253.195 142.638 250.365 142.26C246.177 141.616 243.279 139.846 241.829 137.108C240.928 135.399 240.329 133.547 240.06 131.634C239.842 130.738 239.787 129.811 239.899 128.896L239.576 128.897ZM275.645 75.277C275.523 74.2402 275.307 73.2166 275 72.2189C275 71.8979 274.359 71.5741 274.035 71.4191C273.536 71.4317 273.044 71.5401 272.586 71.7389C271.982 72.0777 271.438 72.5132 270.976 73.028C268.722 75.606 266.144 78.181 264.054 81.079C258.058 89.5118 253.236 98.7205 249.721 108.452C248.718 111.142 247.859 113.883 247.147 116.664C247.147 116.664 247.467 116.987 247.628 116.987H248.428C253.193 112.791 257.607 108.213 261.628 103.3C265.236 99.1386 268.469 94.6662 271.289 89.935C274.075 85.5475 275.584 80.4701 275.645 75.2729V75.277Z"
      fill="#231F20"/>
    <path
      opacity="0.12"
      d="M349.721 129.858C345.831 129.811 341.953 129.434 338.127 128.733C337.376 128.564 336.597 128.563 335.845 128.729C335.093 128.896 334.388 129.227 333.779 129.698C330.436 132.2 326.815 134.307 322.989 135.979C319.846 137.524 316.476 138.557 313.008 139.038C311.181 139.337 309.311 139.227 307.532 138.714C305.441 138.07 304.152 136.944 303.832 135.495C303.396 133.81 303.627 132.022 304.477 130.503C307.215 125.511 311.723 121.486 318.004 118.588C319.389 117.969 320.85 117.535 322.349 117.299C323.076 117.17 323.822 117.188 324.541 117.355C325.261 117.521 325.939 117.832 326.536 118.267C327.02 118.588 327.02 119.067 326.536 119.232C316.876 121.166 311.563 126.155 308.336 132.597C308.008 133.303 307.844 134.073 307.855 134.851C307.695 136.139 309.465 137.265 311.235 137.265C312.773 137.247 314.297 136.975 315.746 136.46C320.872 134.704 325.663 132.092 329.915 128.733L332.329 126.479C333.213 125.995 334.235 125.825 335.229 125.995C335.78 126.007 336.325 126.117 336.839 126.318C340.006 127.343 343.346 127.726 346.663 127.444C361.476 127.123 375.805 125.511 389.493 121.486C396.093 119.717 402.373 117.459 408.815 115.369L411.874 114.885C412.286 114.945 412.675 115.112 413.002 115.369C413.074 115.542 413.081 115.735 413.021 115.912C412.962 116.09 412.84 116.24 412.678 116.334C412.153 116.802 411.555 117.182 410.908 117.459C400.635 121.513 390.019 124.639 379.188 126.799C374.035 127.599 368.883 128.409 363.73 128.733C359.058 129.054 354.387 129.377 349.721 129.858Z"
      fill="#231F20"/>
    <path
      opacity="0.12"
      d="M431.043 128.088C429.948 127.824 428.793 127.998 427.824 128.572C425.57 129.372 423.312 130.342 421.058 131.147C416.989 132.636 412.782 133.714 408.499 134.366C404.965 135.123 401.291 134.901 397.873 133.725C394.973 132.757 393.525 131.147 393.846 128.733C394.33 125.19 396.424 121.971 400.127 119.393C400.288 119.393 400.448 119.232 400.772 119.232C401.256 119.232 402.061 119.072 402.221 119.232C402.702 119.717 403.347 120.358 403.021 120.682C402.259 122.12 401.341 123.47 400.283 124.706C399.398 125.958 398.794 127.386 398.513 128.893C398.189 131.147 399.962 132.593 403.021 132.593C405.838 132.454 408.639 132.078 411.393 131.467C418.244 129.665 424.844 127.015 431.038 123.576C432.491 122.813 433.889 121.952 435.225 120.998C436.995 120.033 438.445 119.873 439.41 120.517C440.215 120.998 440.215 121.803 439.41 123.092C438.659 124.019 437.961 124.987 437.319 125.992C436.799 126.996 436.47 128.087 436.351 129.211C436.191 131.628 438.284 133.238 441.503 133.398C444.845 133.585 448.197 133.369 451.488 132.754C458.368 131.401 465.106 129.407 471.614 126.796C477.572 124.382 483.048 121.483 488.521 118.745C490.643 117.565 492.849 116.542 495.121 115.686C495.442 115.526 496.41 116.01 497.055 116.331C497.215 116.331 496.891 116.975 496.731 117.296L496.25 117.78C496.086 117.78 495.926 117.941 495.605 118.101C487.184 123.151 478.285 127.358 469.038 130.66C462.576 132.955 455.878 134.522 449.069 135.332C445.682 135.656 442.267 135.494 438.927 134.848C435.384 134.048 432.969 132.594 431.841 130.019C431.527 129.377 431.364 128.733 431.043 128.088Z"
      fill="#231F20"/>
    <path
      opacity="0.12"
      d="M512.849 138.714C508.082 138.865 503.315 138.378 498.677 137.265C495.973 136.73 493.33 135.921 490.79 134.851C485.637 132.276 483.383 128.572 484.832 124.225C486.095 120.629 488.534 117.564 491.755 115.525L493.044 115.041C493.544 115.053 494.036 115.163 494.493 115.365C494.646 115.474 494.77 115.619 494.854 115.787C494.938 115.956 494.979 116.142 494.974 116.33L493.044 118.744C491.822 120.565 490.692 122.446 489.661 124.381C487.891 127.761 489.501 130.499 493.044 132.916C495.312 134.333 497.823 135.316 500.45 135.816C506.542 137.051 512.79 137.323 518.967 136.624C530.672 135.233 542.248 132.917 553.587 129.697C563.248 126.959 572.748 123.897 582.249 120.997C583.667 120.382 585.224 120.16 586.757 120.353C587.241 120.353 587.401 120.677 587.722 120.997C587.753 121.037 587.773 121.084 587.782 121.133C587.79 121.183 587.786 121.234 587.77 121.282C587.755 121.329 587.727 121.373 587.691 121.407C587.655 121.442 587.61 121.467 587.562 121.481C587.224 121.755 586.844 121.973 586.436 122.126C571.783 127.279 557.29 132.107 541.672 135.326C537.164 136.126 532.493 136.775 527.984 137.74C522.974 138.481 517.912 138.807 512.849 138.714ZM519.932 94.595C519.772 94.758 519.772 94.9192 519.612 95.0792L518.323 95.5631C510.756 97.4931 503.189 99.5871 495.942 101.841C495.21 102.08 494.454 102.243 493.688 102.325C493.044 102.486 492.076 102.165 491.915 101.525C491.927 101.34 491.976 101.159 492.059 100.993C492.142 100.827 492.258 100.679 492.399 100.559C493 100.195 493.652 99.9227 494.333 99.752C501.725 97.3331 509.251 95.344 516.873 93.7943C517.622 93.7141 518.378 93.7141 519.127 93.7943C519.252 93.7969 519.375 93.8271 519.486 93.8831C519.598 93.9392 519.695 94.0196 519.772 94.1182C519.833 94.1813 519.878 94.2568 519.906 94.3397C519.934 94.4225 519.942 94.5105 519.932 94.5972V94.595Z"
      fill="#231F20"/>
    <path
      opacity="0.12"
      d="M566.636 178.97C565.063 178.808 563.503 178.541 561.967 178.17C558.424 177.205 556.654 174.47 557.619 171.729C558.191 170.006 559.188 168.455 560.519 167.22C562.671 165.324 564.929 163.55 567.281 161.908C570.019 159.974 573.081 158.208 576.137 156.431C577.559 155.705 578.908 154.843 580.164 153.856C580.497 153.636 580.782 153.352 581.003 153.02C581.224 152.688 581.376 152.315 581.45 151.923C581.561 150.259 581.507 148.588 581.29 146.934C581.129 143.234 580.809 139.524 580.645 135.821C580.483 132.589 580.976 129.358 582.094 126.321C583.3 122.346 585.94 118.96 589.501 116.821C590.608 116.144 591.913 115.862 593.201 116.021C593.365 116.182 593.686 116.182 593.686 116.342C593.846 116.663 594.17 116.986 593.846 117.307C593.686 117.631 593.201 117.791 592.72 117.952C588.533 120.852 586.279 124.233 585.474 128.252C584.614 131.671 584.396 135.219 584.83 138.717C585.314 142.1 585.474 145.317 585.795 148.702C585.795 149.507 587.244 149.991 588.049 149.507C588.533 149.346 589.017 149.186 589.498 149.022L644.246 120.361C645.914 119.407 647.634 118.547 649.399 117.786C649.856 117.585 650.348 117.475 650.848 117.462L652.134 117.947C652.158 118.174 652.101 118.402 651.974 118.591C650.685 120.04 648.594 120.845 646.821 121.81C637.16 126.963 627.5 131.955 617.839 137.11L591.271 150.798C589.982 151.442 588.854 152.086 587.571 152.891C587.122 153.127 586.739 153.471 586.457 153.893C586.176 154.315 586.005 154.801 585.961 155.306C585.798 156.915 585.798 158.685 585.637 160.298C585.334 163.928 584.235 167.446 582.418 170.603C581.494 172.476 580.108 174.083 578.391 175.272C575.492 177.521 571.628 178.649 566.636 178.97ZM581.612 159.809C581.449 159.009 581.612 158.68 581.449 158.36C581.206 158.011 580.872 157.734 580.484 157.56C580.248 157.463 579.992 157.426 579.739 157.454C579.486 157.482 579.243 157.574 579.035 157.72C574.089 160.121 569.441 163.094 565.186 166.576C563.936 167.69 562.803 168.93 561.807 170.276C561.319 171.122 560.991 172.051 560.839 173.015C560.197 176.073 564.221 178.327 568.409 177.523C571.405 176.873 574.146 175.362 576.296 173.175C578.148 171.357 579.482 169.079 580.163 166.575C580.808 164.157 581.128 161.742 581.612 159.809Z"
      fill="#231F20"/>
    <path
      opacity="0.12"
      d="M647.634 128.249C647.955 131.949 649.564 133.401 652.142 133.401C655.362 133.241 658.584 133.241 661.642 132.276C666.812 130.625 671.868 128.634 676.776 126.318C681.124 124.385 685.151 121.807 689.335 119.553C689.934 119.168 690.65 119.006 691.356 119.094C692.063 119.183 692.716 119.516 693.202 120.037C681.768 126.479 670.979 133.401 658.419 135.495C655.757 135.979 653.03 135.979 650.368 135.495C647.468 135.011 645.7 132.757 645.379 129.538C644.895 124.061 649.079 115.369 653.591 112.951C654.391 112.631 656.005 112.47 656.491 112.951C657.246 113.926 657.693 115.104 657.777 116.334C657.777 118.748 656.167 120.521 654.558 122.134C652.303 124.225 650.049 126.155 647.634 128.249ZM649.564 123.096C654.396 118.748 654.396 118.748 655.041 115.205C652.303 116.497 650.853 118.588 649.564 123.097V123.096Z"
      fill="#231F20"/>
    <path
      opacity="0.12"
      d="M743.446 137.265C755.035 137.16 766.543 135.315 777.584 131.792C785.008 129.373 792.223 126.358 799.16 122.775C802.542 121.002 805.922 119.232 809.141 117.459C810.024 117.016 810.94 116.64 811.879 116.334C812.216 116.239 812.571 116.234 812.91 116.319C813.249 116.404 813.561 116.576 813.813 116.818C813.892 116.995 813.933 117.187 813.933 117.381C813.933 117.575 813.892 117.767 813.813 117.944C813.569 118.293 813.235 118.57 812.847 118.744C799.46 126.835 784.904 132.809 769.693 136.456C763.101 137.785 756.433 138.699 749.727 139.194C744.28 139.548 738.811 139.169 733.465 138.066C730.325 137.424 727.326 136.225 724.609 134.526C721.709 132.593 720.582 130.338 720.909 127.6C721.027 126.825 721.243 126.067 721.551 125.346C723.251 122.116 725.891 119.478 729.121 117.779C730.916 116.722 733.041 116.378 735.078 116.814C735.878 116.974 736.688 117.614 736.528 117.94C736.204 118.263 736.043 118.74 735.728 118.74C729.928 120.35 727.677 123.893 726.067 127.596C724.938 130.014 725.904 132.104 728.321 133.877C730.99 135.701 734.109 136.759 737.337 136.936C739.903 137.105 742.481 137.105 743.446 137.265Z"
      fill="#231F20"/>
    <path
      opacity="0.12"
      d="M839.101 129.858C835.211 129.811 831.333 129.434 827.507 128.733C826.756 128.564 825.977 128.563 825.225 128.729C824.474 128.896 823.768 129.227 823.159 129.698C819.816 132.2 816.196 134.308 812.369 135.979C809.226 137.524 805.857 138.557 802.388 139.038C800.561 139.337 798.691 139.227 796.912 138.714C794.821 138.07 793.532 136.944 793.212 135.495C792.776 133.81 793.007 132.022 793.857 130.503C796.595 125.511 801.103 121.486 807.384 118.588C808.769 117.969 810.23 117.535 811.729 117.299C812.456 117.17 813.202 117.188 813.921 117.355C814.641 117.521 815.32 117.832 815.916 118.267C816.401 118.588 816.401 119.067 815.916 119.232C806.256 121.166 800.943 126.155 797.716 132.597C797.388 133.303 797.224 134.073 797.235 134.851C797.075 136.139 798.845 137.265 800.615 137.265C802.153 137.247 803.677 136.975 805.126 136.46C810.252 134.704 815.043 132.092 819.295 128.733L821.71 126.479C822.594 125.995 823.616 125.824 824.61 125.995C825.161 126.007 825.706 126.117 826.22 126.318C829.387 127.343 832.727 127.726 836.044 127.444C850.857 127.123 865.186 125.511 878.874 121.486C885.474 119.717 891.754 117.459 898.196 115.369L901.255 114.885C901.667 114.945 902.056 115.112 902.383 115.369C902.455 115.542 902.462 115.735 902.403 115.913C902.343 116.09 902.221 116.24 902.059 116.334C901.534 116.802 900.936 117.182 900.289 117.459C890.016 121.513 879.4 124.639 868.569 126.799C863.416 127.599 858.269 128.409 853.111 128.733C848.438 129.054 843.769 129.377 839.101 129.858Z"
      fill="#231F20"/>
    <path
      opacity="0.12"
      d="M944.737 115.205C945.378 119.072 943.769 122.452 946.023 126.799C947.151 128.893 949.566 129.699 952.788 129.377C956.806 128.795 960.747 127.769 964.539 126.318C969.211 124.385 973.879 122.291 978.551 120.198C981.77 118.909 984.829 117.459 987.888 116.174C989.044 115.725 990.228 115.348 991.431 115.045C992.268 114.859 993.139 114.895 993.957 115.149C994.776 115.404 995.514 115.867 996.099 116.494C996.368 116.776 996.586 117.102 996.744 117.459C998.677 121.486 1003.34 123.259 1008.5 124.059C1013.01 124.867 1017.68 125.672 1022.35 124.543C1030.2 124.109 1037.93 122.368 1045.21 119.391C1047.3 118.591 1049.4 117.942 1051.65 117.297C1051.97 117.137 1052.62 117.457 1052.94 117.621C1053.02 117.769 1053.06 117.935 1053.06 118.103C1053.06 118.272 1053.02 118.438 1052.94 118.586C1046.77 121.817 1040.15 124.097 1033.3 125.348C1024.92 126.797 1016.39 127.442 1007.85 125.832C1005.35 125.413 1002.87 124.82 1000.45 124.059C997.344 123.208 994.585 121.406 992.559 118.907C992.144 118.444 991.588 118.13 990.976 118.014C990.365 117.898 989.733 117.986 989.177 118.265C987.083 119.23 985.15 120.035 983.219 121L968.406 127.282C964.225 129.041 959.845 130.284 955.363 130.982C953.073 131.385 950.73 131.385 948.44 130.982C944.74 130.498 942.319 129.049 941.194 126.474C940.291 124.621 939.849 122.577 939.905 120.516C940.038 119.017 940.091 117.512 940.065 116.008C939.819 115.61 939.451 115.301 939.017 115.127C938.583 114.953 938.104 114.922 937.651 115.04C935.397 115.84 932.982 116.65 930.728 117.618C920.904 121.802 911.567 126.474 902.387 131.303C899.168 133.076 896.109 134.685 892.887 136.295C891.487 136.974 889.927 137.251 888.379 137.095C887.414 136.934 886.285 136.129 886.445 135.645C886.618 134.708 886.888 133.792 887.25 132.91C889.668 129.367 891.922 125.824 894.336 122.281L899.168 116.003C899.699 115.493 900.372 115.156 901.098 115.035C901.533 114.929 901.991 114.986 902.387 115.195C902.871 115.359 903.187 115.84 903.032 116.164C902.559 117.216 902.021 118.237 901.422 119.222C898.844 123.086 896.109 126.789 893.531 130.653C893.211 131.137 893.371 131.782 893.211 132.266C893.211 132.266 893.692 132.587 893.852 132.426C895.221 131.959 896.565 131.422 897.879 130.817L921.549 119.062C924.931 117.289 928.634 115.84 932.177 114.391C936.522 112.941 938.777 111.976 941.838 112.781C943.448 113.275 944.573 113.919 944.737 115.205Z"
      fill="#231F20"/>
    <path
      opacity="0.12"
      d="M1124.12 130.022C1116.84 131.553 1109.47 132.681 1102.06 133.401C1099.01 133.885 1095.78 133.562 1092.72 133.562C1091.95 133.573 1091.18 133.409 1090.47 133.081C1088.54 132.757 1087.73 131.147 1088.86 130.022C1089.55 129.15 1090.36 128.389 1091.28 127.765L1096.75 123.901C1098.94 122.269 1100.76 120.182 1102.06 117.783C1102.71 116.334 1102.55 114.564 1101.42 114.083C1099.96 113.599 1098.38 113.599 1096.91 114.083C1094.82 114.883 1092.72 115.532 1090.63 116.337C1085.39 118.588 1080.37 121.338 1075.66 124.548C1069.01 128.996 1062.71 133.949 1056.82 139.362C1046.79 148.571 1037.77 158.828 1029.93 169.957C1027.03 173.787 1024.49 177.884 1022.36 182.192C1021.94 182.933 1021.33 183.546 1020.59 183.965C1020.12 184.118 1019.63 184.173 1019.14 184.126C1018.82 183.965 1018.17 183.641 1018.17 183.326C1018.2 182.618 1018.31 181.916 1018.49 181.232C1022.52 168.832 1027.99 156.918 1033.47 144.843C1037.57 136.061 1042.25 127.562 1047.48 119.401C1048.12 118.396 1048.82 117.428 1049.57 116.501C1049.87 116.29 1050.22 116.151 1050.58 116.096C1050.94 116.04 1051.32 116.07 1051.66 116.181C1052.15 116.341 1052.63 117.146 1052.47 117.466C1051.56 119.639 1050.48 121.739 1049.25 123.748C1042.81 134.54 1037.06 145.726 1032.02 157.241C1031.08 158.795 1030.58 160.576 1030.57 162.394C1032.05 160.97 1033.45 159.464 1034.76 157.882C1041.98 149.206 1049.9 141.129 1058.43 133.732C1065.06 127.854 1072.35 122.773 1080.17 118.595C1084.14 116.266 1088.35 114.376 1092.72 112.958C1096.15 111.808 1099.8 111.532 1103.35 112.153C1106.09 112.638 1107.86 114.247 1107.54 116.181C1107.42 116.957 1107.2 117.714 1106.89 118.435C1105.59 120.834 1103.77 122.921 1101.58 124.552L1094.82 129.221C1094.36 129.632 1093.98 130.123 1093.69 130.67C1093.37 130.994 1094.01 131.799 1094.66 131.959C1095.67 132.094 1096.7 132.148 1097.72 132.119C1112.86 130.51 1127.34 127.772 1140.87 122.782C1154.56 117.783 1163.09 119.232 1124.12 130.022ZM1030.25 162.707C1030.09 162.707 1030.09 162.707 1029.93 162.868C1029.84 162.952 1029.78 163.067 1029.77 163.191L1030.25 162.707Z"
      fill="#231F20"/>
    <path
      opacity="0.12"
      d="M1162.14 132.276C1160.53 132.757 1158.91 133.401 1157.3 134.046C1154.89 134.846 1152.31 135.816 1149.74 136.784C1147.76 137.403 1145.68 137.622 1143.62 137.428C1141.04 137.105 1138.95 135.335 1139.11 133.401C1139.14 132.852 1139.25 132.31 1139.43 131.792C1142.02 126.39 1146.25 121.94 1151.51 119.072C1152.97 118.038 1154.71 117.475 1156.5 117.459C1156.99 117.506 1157.45 117.736 1157.79 118.104C1157.91 118.238 1157.97 118.41 1157.97 118.588C1157.97 118.766 1157.91 118.938 1157.79 119.072C1157.3 119.464 1156.76 119.789 1156.18 120.037C1151.84 122.594 1148.11 126.054 1145.23 130.182C1144.43 131.252 1143.98 132.545 1143.94 133.882C1143.94 134.848 1145.23 135.652 1146.52 135.332C1149.18 134.766 1151.77 133.901 1154.24 132.754C1156.03 131.906 1157.86 131.154 1159.72 130.5C1160.79 130.081 1161.95 129.921 1163.1 130.033C1164.24 130.145 1165.35 130.525 1166.32 131.144C1172.44 135.492 1180.33 136.621 1188.7 136.457C1193.61 136.484 1198.49 135.779 1203.19 134.363C1211.14 132.393 1218.66 129.012 1225.41 124.382L1232.98 118.582C1233.63 118.098 1234.59 117.777 1235.4 117.293C1235.56 117.293 1236.04 117.293 1236.2 117.453C1236.36 117.523 1236.51 117.633 1236.62 117.775C1236.73 117.916 1236.81 118.083 1236.84 118.261C1236.84 118.449 1236.8 118.635 1236.72 118.804C1236.64 118.972 1236.51 119.117 1236.36 119.226C1227.02 128.082 1215.1 134.04 1200.29 137.099C1190.11 139.1 1179.58 138.491 1169.7 135.329C1167.13 134.366 1164.87 133.241 1162.14 132.276Z"
      fill="#231F20"/>
    <path
      opacity="0.12"
      d="M1319.46 132.757C1314.11 132.748 1308.78 132.263 1303.52 131.308C1300.34 130.715 1297.21 129.854 1294.18 128.733C1288.7 126.639 1284.19 123.901 1281.78 119.717L1280.81 118.267C1280.56 117.978 1280.23 117.764 1279.86 117.651C1279.49 117.537 1279.1 117.528 1278.72 117.623L1272.92 120.523C1266.48 123.743 1260.04 126.801 1253.12 129.54C1249.09 130.989 1244.9 132.438 1240.56 133.887C1238.07 134.539 1235.54 135.024 1232.99 135.337C1231.2 135.577 1229.39 135.411 1227.67 134.853C1225.74 134.368 1224.29 132.922 1224.77 131.31C1224.97 130.203 1225.29 129.122 1225.74 128.09C1227.65 124.469 1230.09 121.158 1232.99 118.269C1233.31 117.946 1234.11 117.625 1234.6 117.141C1235.24 116.98 1236.37 116.98 1236.69 117.461C1236.86 117.564 1237.01 117.704 1237.12 117.872C1237.24 118.039 1237.31 118.231 1237.34 118.43C1236.8 119.272 1236.2 120.079 1235.56 120.844C1233.44 123.545 1231.6 126.461 1230.09 129.544C1229.85 130.222 1229.69 130.924 1229.61 131.637C1229.45 132.282 1230.57 133.087 1231.54 133.087C1233.06 133.174 1234.58 133.011 1236.05 132.603C1242.94 130.613 1249.67 128.082 1256.17 125.035C1261.81 122.458 1267.28 119.723 1272.92 116.984C1274.85 116.019 1276.78 115.051 1278.72 114.246C1279.71 113.929 1280.74 113.766 1281.78 113.762C1282.9 113.602 1284.68 114.407 1284.84 115.051L1285.64 117.305C1287.09 121.492 1290.47 124.551 1295.62 126.805C1301.74 129.373 1308.3 130.74 1314.94 130.833C1329.2 131.481 1343.4 128.663 1356.32 122.621C1359.22 121.172 1361.96 119.721 1364.7 118.434C1365.44 118.301 1366.2 118.246 1366.95 118.273C1367.13 118.374 1367.28 118.514 1367.39 118.681C1367.5 118.848 1367.57 119.039 1367.6 119.238C1367.57 119.415 1367.49 119.581 1367.38 119.72C1367.26 119.86 1367.12 119.969 1366.95 120.038C1353.27 129.054 1335.4 133.081 1319.46 132.757Z"
      fill="#231F20"/>
    <path
      opacity="0.12"
      d="M1364.07 196.037C1364.55 193.302 1365.04 190.237 1365.68 187.337C1369.33 170.266 1375.34 153.79 1383.56 138.389C1386.29 133.396 1388.87 128.244 1391.45 123.251C1391.52 123.078 1391.53 122.886 1391.47 122.709C1391.41 122.531 1391.29 122.381 1391.13 122.286C1390.71 122.126 1390.25 122.126 1389.84 122.286C1387.9 123.251 1385.97 124.38 1384.2 125.345C1380.78 127.163 1377.23 128.724 1373.57 130.017C1370.63 131.058 1367.49 131.389 1364.39 130.982C1361.82 130.822 1359.73 129.049 1359.89 127.118C1360.37 123.736 1362.3 120.997 1365.69 118.743C1366.13 118.518 1366.62 118.387 1367.12 118.359C1367.62 118.332 1368.12 118.408 1368.59 118.583C1368.91 118.743 1369.39 119.227 1369.23 119.383C1367.78 121.476 1366.17 123.41 1365.04 125.34C1364.69 126.207 1364.58 127.153 1364.72 128.078C1364.72 128.723 1366.17 129.528 1366.98 129.367C1367.94 129.044 1368.91 128.883 1369.88 128.567C1374.7 126.964 1379.34 124.859 1383.73 122.286C1386.3 120.677 1388.72 119.067 1391.45 117.618C1392.49 116.943 1393.63 116.452 1394.84 116.169C1396.93 115.684 1399.18 116.969 1398.86 118.583C1398.54 119.698 1398.11 120.777 1397.57 121.802C1394.84 127.118 1392.1 132.592 1389.2 137.902C1382.46 150.279 1377.06 163.342 1373.1 176.869L1371.17 184.6C1371.17 184.76 1371.49 184.92 1371.65 185.081C1371.81 185.081 1372.3 185.081 1372.3 184.92L1375.2 181.541C1388.1 164.738 1403.09 149.642 1419.8 136.617C1423.98 133.394 1428.33 130.175 1433 127.117C1440.08 122.446 1446.2 121.801 1440.41 125.505C1429.24 132.926 1418.64 141.161 1408.68 150.142C1398.5 159.47 1389.08 169.592 1380.5 180.413C1376.73 185.141 1373.23 190.088 1370.04 195.227C1369.58 196.121 1368.98 196.935 1368.27 197.641C1367.85 197.918 1367.37 198.104 1366.87 198.187C1366.37 198.271 1365.86 198.25 1365.37 198.125C1364.91 197.716 1364.52 197.225 1364.24 196.676C1364.07 196.521 1364.07 196.361 1364.07 196.037Z"
      fill="#231F20"/>
  </g>
</svg>
