<svg xmlns="http://www.w3.org/2000/svg" width="43.701" height="25.281"><path data-name="Tracé 348" d="M12.269.743c-4.009 1.336-8.5 4.131-8.5 7.41 0 2.673 2.673 3.28 6.438 4.01 4.495.971 6.8 2.792 6.8 6.315 0 3.644-2.794 6.8-7.41 6.8-5.588 0-9.6-4.25-9.6-10.566 0-8.5 6.317-12.877 11.9-14.7.615-.117.857.49.372.731z"/><path data-name="Tracé 349" d="M38.961.743c-4.008 1.336-8.5 4.131-8.5 7.41 0 2.673 2.673 3.28 6.438 4.01 4.494.971 6.8 2.792 6.8 6.315 0 3.644-2.794 6.8-7.41 6.8-5.588 0-9.6-4.25-9.6-10.566 0-8.5 6.317-12.877 11.9-14.7.616-.117.859.49.372.731z"/></svg>
